<svg xmlns="http://www.w3.org/2000/svg" viewBox="0 0 1200 900" role="img" aria-label="Havit TWS earbuds placeholder">
  <defs>
    <linearGradient id="bg" x1="0" x2="1" y1="0" y2="1">
      <stop offset="0" stop-color="#111"/>
      <stop offset=".54" stop-color="#17140d"/>
      <stop offset="1" stop-color="#080808"/>
    </linearGradient>
    <linearGradient id="case" x1="0" x2="1" y1="0" y2="1">
      <stop offset="0" stop-color="#f7f7f2"/>
      <stop offset=".52" stop-color="#d7d9d8"/>
      <stop offset="1" stop-color="#8d9292"/>
    </linearGradient>
    <linearGradient id="bud" x1="0" x2="1" y1="0" y2="1">
      <stop offset="0" stop-color="#fff"/>
      <stop offset=".45" stop-color="#dfe3e5"/>
      <stop offset="1" stop-color="#7f8587"/>
    </linearGradient>
    <filter id="shadow" x="-20%" y="-20%" width="140%" height="150%">
      <feDropShadow dx="0" dy="36" stdDeviation="32" flood-color="#000" flood-opacity=".55"/>
    </filter>
  </defs>
  <rect width="1200" height="900" fill="url(#bg)"/>
  <circle cx="930" cy="138" r="260" fill="#e6bf2f" opacity=".12"/>
  <circle cx="192" cy="724" r="230" fill="#e6bf2f" opacity=".08"/>
  <g filter="url(#shadow)">
    <rect x="314" y="450" width="572" height="252" rx="98" fill="url(#case)"/>
    <path d="M326 505c30 35 82 54 155 54h238c74 0 125-19 156-54" fill="none" stroke="#767a7b" stroke-width="18" stroke-linecap="round" opacity=".48"/>
    <circle cx="600" cy="624" r="12" fill="#e6bf2f"/>
    <text x="600" y="676" text-anchor="middle" font-family="Arial, sans-serif" font-size="54" font-weight="800" fill="#161616" letter-spacing="8">HAVIT</text>
    <g>
      <path d="M423 205c-66 0-118 50-118 113 0 62 52 111 118 111 64 0 116-49 116-111 0-63-52-113-116-113z" fill="url(#bud)"/>
      <rect x="485" y="282" width="70" height="238" rx="35" fill="url(#bud)"/>
      <circle cx="424" cy="317" r="42" fill="#171717" opacity=".13"/>
      <rect x="510" y="344" width="18" height="18" rx="9" fill="#222" opacity=".45"/>
    </g>
    <g transform="translate(238 6)">
      <path d="M423 205c-66 0-118 50-118 113 0 62 52 111 118 111 64 0 116-49 116-111 0-63-52-113-116-113z" fill="url(#bud)"/>
      <rect x="291" y="282" width="70" height="238" rx="35" fill="url(#bud)"/>
      <circle cx="424" cy="317" r="42" fill="#171717" opacity=".13"/>
      <rect x="317" y="344" width="18" height="18" rx="9" fill="#222" opacity=".45"/>
    </g>
  </g>
  <text x="600" y="790" text-anchor="middle" font-family="Arial, sans-serif" font-size="34" font-weight="700" fill="#e6bf2f">TWS Bluetooth Earbuds</text>
</svg>
